# xmcd
#
# Track frame offsets: 
#        150
#        6312
#        17285
#        32367
#        42657
#        63305
#        75140
#        90255
#        103657
#        120407
#        127212
#        146870
#        172700
#        183222
#        193447
#        215370
#
# Disc length: 3220 seconds
#
# Revision: 3
# Processed by: cddbd v1.5.1PL0 Copyright (c) Steve Scherf et al.
# Submitted via: ExactAudioCopy v0.90b4
#
DISCID=c90c9210
DTITLE=George Jones - Live With The Possum
DYEAR=1999
DGENRE=Country
TTITLE0=Intro
TTITLE1=No Show Jones
TTITLE2=One You've Had The Best
TTITLE3=The Race Is On
TTITLE4=Bartender's Blues
TTITLE5=Black Mountain Rag
TTITLE6=A Picture Of Me Without You
TTITLE7=The Corvette Song
TTITLE8=Who's Gonna Fill Their Shoes
TTITLE9=Fire On The Mountain
TTITLE10=She Loved A Lot In Her Time
TTITLE11=Medley
TTITLE12=One Woman Man
TTITLE13=Orange Blossom Special
TTITLE14=He Stopped Loving Her Today
TTITLE15=Rockin Chair
EXTD=
EXTT0=
EXTT1=
EXTT2=
EXTT3=
EXTT4=
EXTT5=
EXTT6=
EXTT7=
EXTT8=
EXTT9=
EXTT10=
EXTT11=
EXTT12=
EXTT13=
EXTT14=
EXTT15=
PLAYORDER=
